<svg width="241" height="57" viewBox="0 0 241 57" fill="none" xmlns="http://www.w3.org/2000/svg">
<path d="M230.022 28.6412C229.588 28.6884 219.807 29.5784 208.512 30.6633C210.24 30.5097 221.668 30.0134 231.182 29.9043C233.283 29.7005 210.851 31.1575 189.629 32.351C187.363 32.7341 209.228 31.6808 229.509 30.6563C233.058 30.3196 199.395 32.3938 162.061 34.9248C161.57 34.9889 203.063 32.6273 227.133 31.5997C229.143 31.2656 191.675 33.6367 138.173 37.0974C145.904 36.6081 181.217 34.7884 231.881 31.8702C232.028 31.8654 179.022 35.2198 119.813 38.7333C123.079 38.6619 175.997 35.8499 237.379 32.0892C236.078 31.8868 166.956 36.5416 105.154 40.1162C99.6709 40.9777 173.145 36.1099 240.686 32.3488C226.341 33.5003 145.663 38.6715 69.3041 43.5693C87.1261 41.7486 156.61 37.8924 233.091 33.8745C223.398 34.7213 150.85 38.7144 58.6666 44.7725C53.6256 45.4895 143.521 39.7329 220.356 35.36C241.952 33.8341 132.61 40.4174 37.282 47.0391C46.1382 45.6928 144.395 39.9828 225.138 36.0926C230.922 35.0996 128.01 41.7059 24.9945 47.571M13.6547 55.5517C13.8683 55.5052 23.865 54.5817 34.5117 53.5841C33.921 53.6231 26.3729 53.7112 12.5065 54.3765C12.8627 54.3362 35.9008 52.766 55.2722 51.6896C54.7637 51.7237 37.5861 52.242 11.814 53.7332C11.5217 53.648 43.3249 51.6353 78.8464 49.4995C78.825 49.3456 50.3961 50.6821 15.4624 52.7277C12.0708 53.1206 58.1315 49.8692 99.3582 47.6713C94.9841 47.8035 52.7321 50.4009 7.62738 52.7557C14.7218 52.0396 64.6415 48.8804 117.66 45.6186C122.288 45.3208 60.9057 49.0814 9.69876 51.8368C9.43517 52.0778 80.3776 47.0835 149.531 42.651C135.993 43.9661 84.5373 46.6483 13.041 51.1472C10.8919 51.3621 95.8542 45.6581 165.751 41.3001C174.98 40.3647 80.1085 46.7408 3.71474 51.3855C22.7265 49.1672 92.8579 45.7009 199.729 37.816C192.734 38.9316 105.422 44.2063 15.4716 49.5684C7.24411 49.7571 102.677 43.8859 214.691 36.3764C209.17 36.9638 125.64 42.0974 1.00003 49.7438C21.9475 48.0442 121.864 42.2817 227.836 35.2949" stroke="#75B4CE" stroke-width="2"/>
<g filter="url(#filter0_d_49_37)">
<mask id="path-2-outside-1_49_37" maskUnits="userSpaceOnUse" x="23.4465" y="0" width="184" height="43" fill="black">
<rect fill="white" x="23.4465" width="184" height="43"/>
<path d="M41.0363 14.9471C37.5905 14.9471 33.978 14.0355 30.1987 12.2124C26.3639 10.3436 24.4465 8.42933 24.4465 6.46945C24.4465 3.82588 26.0583 2.5041 29.2817 2.5041C29.6152 2.5041 30.032 2.52689 30.5322 2.57247C31.0324 2.57247 31.4492 2.61804 31.7827 2.7092C41.0085 4.62351 48.9838 6.10482 55.7086 7.15313C62.489 8.15586 67.9911 8.65722 72.2149 8.65722C77.1613 8.65722 79.6344 7.76844 79.6344 5.99087C79.6344 5.35277 79.2176 4.80582 78.384 4.35004C77.6059 3.84867 76.4666 3.37009 74.966 2.91431L70.4642 1.47858C70.4642 1.25069 70.8255 1.13674 71.548 1.13674C73.7155 1.13674 76.0219 1.93436 78.4673 3.52962C80.9127 5.12487 82.1354 6.67455 82.1354 8.17865C82.1354 9.95622 80.0235 10.845 75.7996 10.845H75.4662C72.6317 10.845 70.0196 10.7311 67.6298 10.5032C65.2956 10.2297 63.1559 9.93343 61.2107 9.61438L43.037 6.60618C41.592 6.37829 40.4249 6.19597 39.5357 6.05924C38.702 5.87692 37.5905 5.69461 36.2011 5.51229C34.9784 5.32998 33.7835 5.21603 32.6163 5.17045C31.5048 5.07929 30.3933 5.03372 29.2817 5.03372C27.1142 5.03372 26.0305 5.51229 26.0305 6.46945C26.0305 8.15586 27.8923 9.84227 31.616 11.5287C33.9502 12.577 35.8398 13.2835 37.2848 13.6481C38.7298 13.9671 39.9247 14.1039 40.8695 14.0583L42.4535 13.9899C42.8425 13.9899 43.037 14.0811 43.037 14.2634C43.037 14.7192 42.3701 14.9471 41.0363 14.9471ZM47.372 42.431C44.2041 42.431 42.6202 40.6991 42.6202 37.2351C42.6202 35.4575 43.7317 32.4037 45.9548 28.0738C47.0664 25.886 48.3168 23.7894 49.7063 21.7839C51.1513 19.7328 52.6796 17.7958 54.2914 15.9726C57.626 12.2807 60.4604 10.4348 62.7946 10.4348C64.0729 10.4348 64.712 10.7766 64.712 11.4603C64.712 11.5059 64.5731 11.8022 64.2952 12.3491L59.0432 16.6563C49.5395 25.3162 44.7877 33.019 44.7877 39.7647C44.7877 41.0409 45.5936 41.679 47.2053 41.679C48.4836 41.679 49.8174 41.3599 51.2068 40.7218L53.291 39.7647C53.5133 39.7647 53.6244 39.8103 53.6244 39.9014C53.6244 40.4484 52.7352 40.9953 50.9567 41.5423C49.2894 42.1348 48.0945 42.431 47.372 42.431Z"/>
<path d="M77.3875 15.2206C76.1648 15.2206 75.1644 14.9471 74.3863 14.4001C75.4423 13.8076 76.5538 13.0328 77.7209 12.0756C78.9436 11.1185 80.1941 9.97901 81.4724 8.65722C81.5835 8.65722 81.6391 8.77117 81.6391 8.99906L81.2223 10.9817C80.9444 12.3947 80.4442 13.4658 79.7217 14.195C78.9992 14.8787 78.2211 15.2206 77.3875 15.2206ZM69.3844 40.1065C67.2725 40.1065 66.2165 38.8531 66.2165 36.3463C66.2165 32.5633 67.8838 27.5724 71.2184 21.3737C71.2184 21.1914 71.3574 20.8495 71.6353 20.3482C71.9687 19.8468 72.2188 19.5277 72.3856 19.391C72.7746 19.072 73.3026 18.9124 73.9695 18.9124C75.9147 18.9124 76.9707 19.2315 77.1374 19.8696C76.2482 21.0546 75.3867 22.422 74.5531 23.9717C73.775 25.5213 72.9969 27.2305 72.2188 29.0993C71.3852 31.1047 70.7738 32.7684 70.3848 34.0901C70.0513 35.3663 69.8846 36.3919 69.8846 37.1667C69.8846 38.3062 70.2458 38.8759 70.9683 38.8759C71.4685 38.8759 72.1077 38.6252 72.8858 38.1239C73.4971 37.7136 73.9139 37.4174 74.1362 37.2351C74.4141 37.0528 74.6642 36.8932 74.8865 36.7565C75.1088 36.7565 75.22 36.8477 75.22 37.03C75.22 37.5313 74.4141 38.1694 72.8024 38.9443C71.1907 39.7191 70.0513 40.1065 69.3844 40.1065Z"/>
<path d="M82.0807 39.2177C81.5249 39.2177 80.9414 39.1038 80.33 38.8759C79.7187 38.648 79.413 38.3745 79.413 38.0555C79.413 37.2806 80.33 34.5459 82.1641 29.8513C83.9981 25.1111 84.9151 21.556 84.9151 19.1859C84.9151 18.4566 84.5261 18.0464 83.748 17.9553C82.9699 17.8641 82.5809 17.7274 82.5809 17.5451C82.5809 17.1349 82.9977 16.9298 83.8314 16.9298C87.555 16.9298 89.4169 18.1832 89.4169 20.69C89.4169 21.9206 88.7777 24.04 87.4994 27.0482L89.4169 24.3819C90.7507 22.5131 92.0845 21.0546 93.4184 20.0063C94.7522 18.9124 96.225 18.3655 97.8368 18.3655H98.0035C100.56 18.3655 101.838 19.7784 101.838 22.6043C101.838 23.7438 101.588 25.2251 101.088 27.0482C100.588 28.8714 99.8097 31.0364 98.7538 33.5432L110.175 23.4247C110.953 23.0601 111.953 22.8778 113.176 22.8778C114.454 22.8778 115.093 23.0829 115.093 23.4931C112.87 28.4156 111.759 32.0163 111.759 34.2952C111.759 36.4374 112.231 37.5085 113.176 37.5085L113.76 36.0044C113.926 36.3235 114.01 36.8021 114.01 37.4402C114.01 38.6252 113.565 39.2177 112.676 39.2177C109.786 39.2177 108.341 37.1667 108.341 33.0646C108.341 32.0619 108.424 30.9224 108.591 29.6462C108.813 28.37 109.119 26.9571 109.508 25.4074C108.785 25.9999 108.118 26.6152 107.507 27.2533C106.951 27.8459 106.34 28.5295 105.673 29.3044L101.338 34.2952C98.9483 37.0755 97.4755 38.4657 96.9197 38.4657C95.0301 38.4657 94.0853 38.1922 94.0853 37.6453C94.0853 37.5997 94.391 36.5286 95.0023 34.432C96.9475 28.4156 97.9201 24.3819 97.9201 22.3308C97.9201 21.3737 97.5589 20.8951 96.8364 20.8951C94.78 20.8951 92.0012 23.3791 88.4998 28.3472C87.8885 29.2588 87.1938 30.3527 86.4157 31.6289C85.6932 32.8595 85.0263 34.0446 84.4149 35.184C84.3038 35.4575 84.0537 35.9133 83.6646 36.5514C83.3312 37.1895 82.9977 37.8048 82.6643 38.3973C82.3308 38.9443 82.1363 39.2177 82.0807 39.2177Z"/>
<path d="M121.948 39.8331C117.224 39.8331 114.862 38.0327 114.862 34.432C114.862 31.6517 116.529 28.2789 119.863 24.3135C123.309 20.3482 126.588 18.3655 129.701 18.3655C131.034 18.3655 132.202 18.7301 133.202 19.4594C134.258 20.1431 134.786 20.9863 134.786 21.989C134.786 23.6754 133.48 25.3846 130.868 27.1166C128.311 28.803 125.782 29.6462 123.281 29.6462C122.781 29.6462 122.531 29.5551 122.531 29.3727L122.781 29.0309C129.173 27.3901 132.368 24.7009 132.368 20.9635C132.368 20.4165 132.146 20.1431 131.701 20.1431C131.09 20.1431 129.978 20.6672 128.367 21.7155C126.977 22.6271 125.671 23.6754 124.449 24.8605C123.281 26.0455 122.225 27.2761 121.281 28.5523C119.28 31.3326 118.28 33.6571 118.28 35.5259C118.28 37.349 119.141 38.2606 120.864 38.2606C122.865 38.2606 125.06 37.4174 127.45 35.731C128.228 35.1385 129.061 34.4776 129.951 33.7483C130.84 32.9735 131.813 32.1303 132.868 31.2187C134.925 29.3955 136.009 28.484 136.12 28.484C136.453 28.484 136.62 28.5979 136.62 28.8258C136.62 29.0081 136.564 29.1904 136.453 29.3727C130.618 36.3463 125.782 39.8331 121.948 39.8331Z"/>
<path d="M140.405 39.6963C137.737 39.6963 136.403 37.8732 136.403 34.2269C136.403 31.9024 137.292 28.0738 139.071 22.741C140.849 17.3628 143.1 12.4175 145.823 7.90517C148.602 3.30172 151.048 1 153.159 1C154.382 1 155.605 1.34184 156.828 2.02552C158.05 2.66362 158.662 3.37009 158.662 4.14493C158.662 7.4266 152.77 14.7192 140.988 26.0227C140.544 27.7091 140.182 29.2816 139.904 30.7401C139.682 32.1986 139.571 33.566 139.571 34.8422C139.571 37.349 140.238 38.6024 141.572 38.6024L142.906 38.2606C143.183 38.2606 143.322 38.3745 143.322 38.6024C143.322 39.3317 142.35 39.6963 140.405 39.6963ZM141.572 24.2451C151.631 13.4886 156.661 6.72013 156.661 3.93983C156.661 3.39288 156.466 3.11941 156.077 3.11941C154.41 3.11941 151.992 5.55787 148.824 10.4348C145.657 15.3117 143.239 19.9152 141.572 24.2451Z"/>
<path d="M160.102 15.2206C158.879 15.2206 157.879 14.9471 157.1 14.4001C158.156 13.8076 159.268 13.0328 160.435 12.0756C161.658 11.1185 162.908 9.97901 164.187 8.65722C164.298 8.65722 164.353 8.77117 164.353 8.99906L163.936 10.9817C163.659 12.3947 163.158 13.4658 162.436 14.195C161.713 14.8787 160.935 15.2206 160.102 15.2206ZM152.099 40.1065C149.987 40.1065 148.931 38.8531 148.931 36.3463C148.931 32.5633 150.598 27.5724 153.933 21.3737C153.933 21.1914 154.072 20.8495 154.349 20.3482C154.683 19.8468 154.933 19.5277 155.1 19.391C155.489 19.072 156.017 18.9124 156.684 18.9124C158.629 18.9124 159.685 19.2315 159.852 19.8696C158.962 21.0546 158.101 22.422 157.267 23.9717C156.489 25.5213 155.711 27.2305 154.933 29.0993C154.099 31.1047 153.488 32.7684 153.099 34.0901C152.765 35.3663 152.599 36.3919 152.599 37.1667C152.599 38.3062 152.96 38.8759 153.682 38.8759C154.183 38.8759 154.822 38.6252 155.6 38.1239C156.211 37.7136 156.628 37.4174 156.85 37.2351C157.128 37.0528 157.378 36.8932 157.601 36.7565C157.823 36.7565 157.934 36.8477 157.934 37.03C157.934 37.5313 157.128 38.1694 155.517 38.9443C153.905 39.7191 152.765 40.1065 152.099 40.1065Z"/>
<path d="M163.242 39.2177C162.686 39.2177 162.158 39.1038 161.658 38.8759C161.158 38.6024 160.88 38.329 160.825 38.0555C160.825 37.2806 161.742 34.5459 163.576 29.8513C165.41 25.1111 166.327 21.556 166.327 19.1859C166.327 18.5022 166.132 18.1148 165.743 18.0236C165.354 17.8869 164.965 17.8413 164.576 17.8869C164.187 17.8869 163.992 17.773 163.992 17.5451C163.992 17.1349 164.409 16.9298 165.243 16.9298C168.967 16.9298 170.828 18.1832 170.828 20.69C170.828 21.6016 169.495 25.3162 166.827 31.834C168.05 30.2387 169.244 28.7802 170.412 27.4584C171.634 26.0911 172.801 24.8377 173.913 23.6982C176.192 21.4193 177.72 20.2798 178.498 20.2798C178.498 20.2798 178.498 20.3026 178.498 20.3482C178.554 20.3482 178.581 20.3709 178.581 20.4165C178.581 20.4621 178.526 20.5761 178.415 20.7584C178.359 20.8951 178.192 21.1002 177.914 21.3737C171.912 27.2989 167.744 32.4037 165.41 36.6881L164.659 38.4657C164.437 38.9671 163.965 39.2177 163.242 39.2177ZM180.499 39.9698C178.887 39.9698 177.609 39.3545 176.664 38.1239C175.775 36.9844 175.33 35.2752 175.33 32.9963C175.33 30.8085 176.053 27.8686 177.498 24.1768C178.943 20.4849 180.332 18.639 181.666 18.639H182.083C183.917 18.639 184.889 18.9352 185.001 19.5277C184.889 19.4366 184.75 19.5733 184.584 19.938C183.806 21.0774 183.055 22.3536 182.333 23.7666C181.666 25.1795 181.027 26.7064 180.415 28.3472C179.193 31.5377 178.581 33.6799 178.581 34.7738C178.581 37.5541 179.193 38.9443 180.415 38.9443C180.749 38.9443 181.221 38.7392 181.833 38.329C182.5 37.9188 182.805 37.6909 182.75 37.6453C182.916 37.6453 183 37.8276 183 38.1922C183 39.3773 182.166 39.9698 180.499 39.9698Z"/>
<path d="M191.31 39.8331C186.586 39.8331 184.224 38.0327 184.224 34.432C184.224 31.6517 185.891 28.2789 189.226 24.3135C192.672 20.3482 195.951 18.3655 199.063 18.3655C200.397 18.3655 201.564 18.7301 202.565 19.4594C203.621 20.1431 204.149 20.9863 204.149 21.989C204.149 23.6754 202.842 25.3846 200.23 27.1166C197.674 28.803 195.145 29.6462 192.644 29.6462C192.144 29.6462 191.894 29.5551 191.894 29.3727L192.144 29.0309C198.535 27.3901 201.731 24.7009 201.731 20.9635C201.731 20.4165 201.509 20.1431 201.064 20.1431C200.453 20.1431 199.341 20.6672 197.729 21.7155C196.34 22.6271 195.034 23.6754 193.811 24.8605C192.644 26.0455 191.588 27.2761 190.643 28.5523C188.643 31.3326 187.642 33.6571 187.642 35.5259C187.642 37.349 188.504 38.2606 190.226 38.2606C192.227 38.2606 194.423 37.4174 196.812 35.731C197.59 35.1385 198.424 34.4776 199.313 33.7483C200.203 32.9735 201.175 32.1303 202.231 31.2187C204.287 29.3955 205.371 28.484 205.482 28.484C205.816 28.484 205.983 28.5979 205.983 28.8258C205.983 29.0081 205.927 29.1904 205.816 29.3727C199.98 36.3463 195.145 39.8331 191.31 39.8331Z"/>
</mask>
<path d="M41.0363 14.9471C37.5905 14.9471 33.978 14.0355 30.1987 12.2124C26.3639 10.3436 24.4465 8.42933 24.4465 6.46945C24.4465 3.82588 26.0583 2.5041 29.2817 2.5041C29.6152 2.5041 30.032 2.52689 30.5322 2.57247C31.0324 2.57247 31.4492 2.61804 31.7827 2.7092C41.0085 4.62351 48.9838 6.10482 55.7086 7.15313C62.489 8.15586 67.9911 8.65722 72.2149 8.65722C77.1613 8.65722 79.6344 7.76844 79.6344 5.99087C79.6344 5.35277 79.2176 4.80582 78.384 4.35004C77.6059 3.84867 76.4666 3.37009 74.966 2.91431L70.4642 1.47858C70.4642 1.25069 70.8255 1.13674 71.548 1.13674C73.7155 1.13674 76.0219 1.93436 78.4673 3.52962C80.9127 5.12487 82.1354 6.67455 82.1354 8.17865C82.1354 9.95622 80.0235 10.845 75.7996 10.845H75.4662C72.6317 10.845 70.0196 10.7311 67.6298 10.5032C65.2956 10.2297 63.1559 9.93343 61.2107 9.61438L43.037 6.60618C41.592 6.37829 40.4249 6.19597 39.5357 6.05924C38.702 5.87692 37.5905 5.69461 36.2011 5.51229C34.9784 5.32998 33.7835 5.21603 32.6163 5.17045C31.5048 5.07929 30.3933 5.03372 29.2817 5.03372C27.1142 5.03372 26.0305 5.51229 26.0305 6.46945C26.0305 8.15586 27.8923 9.84227 31.616 11.5287C33.9502 12.577 35.8398 13.2835 37.2848 13.6481C38.7298 13.9671 39.9247 14.1039 40.8695 14.0583L42.4535 13.9899C42.8425 13.9899 43.037 14.0811 43.037 14.2634C43.037 14.7192 42.3701 14.9471 41.0363 14.9471ZM47.372 42.431C44.2041 42.431 42.6202 40.6991 42.6202 37.2351C42.6202 35.4575 43.7317 32.4037 45.9548 28.0738C47.0664 25.886 48.3168 23.7894 49.7063 21.7839C51.1513 19.7328 52.6796 17.7958 54.2914 15.9726C57.626 12.2807 60.4604 10.4348 62.7946 10.4348C64.0729 10.4348 64.712 10.7766 64.712 11.4603C64.712 11.5059 64.5731 11.8022 64.2952 12.3491L59.0432 16.6563C49.5395 25.3162 44.7877 33.019 44.7877 39.7647C44.7877 41.0409 45.5936 41.679 47.2053 41.679C48.4836 41.679 49.8174 41.3599 51.2068 40.7218L53.291 39.7647C53.5133 39.7647 53.6244 39.8103 53.6244 39.9014C53.6244 40.4484 52.7352 40.9953 50.9567 41.5423C49.2894 42.1348 48.0945 42.431 47.372 42.431Z" fill="#4E7281"/>
<path d="M77.3875 15.2206C76.1648 15.2206 75.1644 14.9471 74.3863 14.4001C75.4423 13.8076 76.5538 13.0328 77.7209 12.0756C78.9436 11.1185 80.1941 9.97901 81.4724 8.65722C81.5835 8.65722 81.6391 8.77117 81.6391 8.99906L81.2223 10.9817C80.9444 12.3947 80.4442 13.4658 79.7217 14.195C78.9992 14.8787 78.2211 15.2206 77.3875 15.2206ZM69.3844 40.1065C67.2725 40.1065 66.2165 38.8531 66.2165 36.3463C66.2165 32.5633 67.8838 27.5724 71.2184 21.3737C71.2184 21.1914 71.3574 20.8495 71.6353 20.3482C71.9687 19.8468 72.2188 19.5277 72.3856 19.391C72.7746 19.072 73.3026 18.9124 73.9695 18.9124C75.9147 18.9124 76.9707 19.2315 77.1374 19.8696C76.2482 21.0546 75.3867 22.422 74.5531 23.9717C73.775 25.5213 72.9969 27.2305 72.2188 29.0993C71.3852 31.1047 70.7738 32.7684 70.3848 34.0901C70.0513 35.3663 69.8846 36.3919 69.8846 37.1667C69.8846 38.3062 70.2458 38.8759 70.9683 38.8759C71.4685 38.8759 72.1077 38.6252 72.8858 38.1239C73.4971 37.7136 73.9139 37.4174 74.1362 37.2351C74.4141 37.0528 74.6642 36.8932 74.8865 36.7565C75.1088 36.7565 75.22 36.8477 75.22 37.03C75.22 37.5313 74.4141 38.1694 72.8024 38.9443C71.1907 39.7191 70.0513 40.1065 69.3844 40.1065Z" fill="#4E7281"/>
<path d="M82.0807 39.2177C81.5249 39.2177 80.9414 39.1038 80.33 38.8759C79.7187 38.648 79.413 38.3745 79.413 38.0555C79.413 37.2806 80.33 34.5459 82.1641 29.8513C83.9981 25.1111 84.9151 21.556 84.9151 19.1859C84.9151 18.4566 84.5261 18.0464 83.748 17.9553C82.9699 17.8641 82.5809 17.7274 82.5809 17.5451C82.5809 17.1349 82.9977 16.9298 83.8314 16.9298C87.555 16.9298 89.4169 18.1832 89.4169 20.69C89.4169 21.9206 88.7777 24.04 87.4994 27.0482L89.4169 24.3819C90.7507 22.5131 92.0845 21.0546 93.4184 20.0063C94.7522 18.9124 96.225 18.3655 97.8368 18.3655H98.0035C100.56 18.3655 101.838 19.7784 101.838 22.6043C101.838 23.7438 101.588 25.2251 101.088 27.0482C100.588 28.8714 99.8097 31.0364 98.7538 33.5432L110.175 23.4247C110.953 23.0601 111.953 22.8778 113.176 22.8778C114.454 22.8778 115.093 23.0829 115.093 23.4931C112.87 28.4156 111.759 32.0163 111.759 34.2952C111.759 36.4374 112.231 37.5085 113.176 37.5085L113.76 36.0044C113.926 36.3235 114.01 36.8021 114.01 37.4402C114.01 38.6252 113.565 39.2177 112.676 39.2177C109.786 39.2177 108.341 37.1667 108.341 33.0646C108.341 32.0619 108.424 30.9224 108.591 29.6462C108.813 28.37 109.119 26.9571 109.508 25.4074C108.785 25.9999 108.118 26.6152 107.507 27.2533C106.951 27.8459 106.34 28.5295 105.673 29.3044L101.338 34.2952C98.9483 37.0755 97.4755 38.4657 96.9197 38.4657C95.0301 38.4657 94.0853 38.1922 94.0853 37.6453C94.0853 37.5997 94.391 36.5286 95.0023 34.432C96.9475 28.4156 97.9201 24.3819 97.9201 22.3308C97.9201 21.3737 97.5589 20.8951 96.8364 20.8951C94.78 20.8951 92.0012 23.3791 88.4998 28.3472C87.8885 29.2588 87.1938 30.3527 86.4157 31.6289C85.6932 32.8595 85.0263 34.0446 84.4149 35.184C84.3038 35.4575 84.0537 35.9133 83.6646 36.5514C83.3312 37.1895 82.9977 37.8048 82.6643 38.3973C82.3308 38.9443 82.1363 39.2177 82.0807 39.2177Z" fill="#4E7281"/>
<path d="M121.948 39.8331C117.224 39.8331 114.862 38.0327 114.862 34.432C114.862 31.6517 116.529 28.2789 119.863 24.3135C123.309 20.3482 126.588 18.3655 129.701 18.3655C131.034 18.3655 132.202 18.7301 133.202 19.4594C134.258 20.1431 134.786 20.9863 134.786 21.989C134.786 23.6754 133.48 25.3846 130.868 27.1166C128.311 28.803 125.782 29.6462 123.281 29.6462C122.781 29.6462 122.531 29.5551 122.531 29.3727L122.781 29.0309C129.173 27.3901 132.368 24.7009 132.368 20.9635C132.368 20.4165 132.146 20.1431 131.701 20.1431C131.09 20.1431 129.978 20.6672 128.367 21.7155C126.977 22.6271 125.671 23.6754 124.449 24.8605C123.281 26.0455 122.225 27.2761 121.281 28.5523C119.28 31.3326 118.28 33.6571 118.28 35.5259C118.28 37.349 119.141 38.2606 120.864 38.2606C122.865 38.2606 125.06 37.4174 127.45 35.731C128.228 35.1385 129.061 34.4776 129.951 33.7483C130.84 32.9735 131.813 32.1303 132.868 31.2187C134.925 29.3955 136.009 28.484 136.12 28.484C136.453 28.484 136.62 28.5979 136.62 28.8258C136.62 29.0081 136.564 29.1904 136.453 29.3727C130.618 36.3463 125.782 39.8331 121.948 39.8331Z" fill="#4E7281"/>
<path d="M140.405 39.6963C137.737 39.6963 136.403 37.8732 136.403 34.2269C136.403 31.9024 137.292 28.0738 139.071 22.741C140.849 17.3628 143.1 12.4175 145.823 7.90517C148.602 3.30172 151.048 1 153.159 1C154.382 1 155.605 1.34184 156.828 2.02552C158.05 2.66362 158.662 3.37009 158.662 4.14493C158.662 7.4266 152.77 14.7192 140.988 26.0227C140.544 27.7091 140.182 29.2816 139.904 30.7401C139.682 32.1986 139.571 33.566 139.571 34.8422C139.571 37.349 140.238 38.6024 141.572 38.6024L142.906 38.2606C143.183 38.2606 143.322 38.3745 143.322 38.6024C143.322 39.3317 142.35 39.6963 140.405 39.6963ZM141.572 24.2451C151.631 13.4886 156.661 6.72013 156.661 3.93983C156.661 3.39288 156.466 3.11941 156.077 3.11941C154.41 3.11941 151.992 5.55787 148.824 10.4348C145.657 15.3117 143.239 19.9152 141.572 24.2451Z" fill="#4E7281"/>
<path d="M160.102 15.2206C158.879 15.2206 157.879 14.9471 157.1 14.4001C158.156 13.8076 159.268 13.0328 160.435 12.0756C161.658 11.1185 162.908 9.97901 164.187 8.65722C164.298 8.65722 164.353 8.77117 164.353 8.99906L163.936 10.9817C163.659 12.3947 163.158 13.4658 162.436 14.195C161.713 14.8787 160.935 15.2206 160.102 15.2206ZM152.099 40.1065C149.987 40.1065 148.931 38.8531 148.931 36.3463C148.931 32.5633 150.598 27.5724 153.933 21.3737C153.933 21.1914 154.072 20.8495 154.349 20.3482C154.683 19.8468 154.933 19.5277 155.1 19.391C155.489 19.072 156.017 18.9124 156.684 18.9124C158.629 18.9124 159.685 19.2315 159.852 19.8696C158.962 21.0546 158.101 22.422 157.267 23.9717C156.489 25.5213 155.711 27.2305 154.933 29.0993C154.099 31.1047 153.488 32.7684 153.099 34.0901C152.765 35.3663 152.599 36.3919 152.599 37.1667C152.599 38.3062 152.96 38.8759 153.682 38.8759C154.183 38.8759 154.822 38.6252 155.6 38.1239C156.211 37.7136 156.628 37.4174 156.85 37.2351C157.128 37.0528 157.378 36.8932 157.601 36.7565C157.823 36.7565 157.934 36.8477 157.934 37.03C157.934 37.5313 157.128 38.1694 155.517 38.9443C153.905 39.7191 152.765 40.1065 152.099 40.1065Z" fill="#4E7281"/>
<path d="M163.242 39.2177C162.686 39.2177 162.158 39.1038 161.658 38.8759C161.158 38.6024 160.88 38.329 160.825 38.0555C160.825 37.2806 161.742 34.5459 163.576 29.8513C165.41 25.1111 166.327 21.556 166.327 19.1859C166.327 18.5022 166.132 18.1148 165.743 18.0236C165.354 17.8869 164.965 17.8413 164.576 17.8869C164.187 17.8869 163.992 17.773 163.992 17.5451C163.992 17.1349 164.409 16.9298 165.243 16.9298C168.967 16.9298 170.828 18.1832 170.828 20.69C170.828 21.6016 169.495 25.3162 166.827 31.834C168.05 30.2387 169.244 28.7802 170.412 27.4584C171.634 26.0911 172.801 24.8377 173.913 23.6982C176.192 21.4193 177.72 20.2798 178.498 20.2798C178.498 20.2798 178.498 20.3026 178.498 20.3482C178.554 20.3482 178.581 20.3709 178.581 20.4165C178.581 20.4621 178.526 20.5761 178.415 20.7584C178.359 20.8951 178.192 21.1002 177.914 21.3737C171.912 27.2989 167.744 32.4037 165.41 36.6881L164.659 38.4657C164.437 38.9671 163.965 39.2177 163.242 39.2177ZM180.499 39.9698C178.887 39.9698 177.609 39.3545 176.664 38.1239C175.775 36.9844 175.33 35.2752 175.33 32.9963C175.33 30.8085 176.053 27.8686 177.498 24.1768C178.943 20.4849 180.332 18.639 181.666 18.639H182.083C183.917 18.639 184.889 18.9352 185.001 19.5277C184.889 19.4366 184.75 19.5733 184.584 19.938C183.806 21.0774 183.055 22.3536 182.333 23.7666C181.666 25.1795 181.027 26.7064 180.415 28.3472C179.193 31.5377 178.581 33.6799 178.581 34.7738C178.581 37.5541 179.193 38.9443 180.415 38.9443C180.749 38.9443 181.221 38.7392 181.833 38.329C182.5 37.9188 182.805 37.6909 182.75 37.6453C182.916 37.6453 183 37.8276 183 38.1922C183 39.3773 182.166 39.9698 180.499 39.9698Z" fill="#4E7281"/>
<path d="M191.31 39.8331C186.586 39.8331 184.224 38.0327 184.224 34.432C184.224 31.6517 185.891 28.2789 189.226 24.3135C192.672 20.3482 195.951 18.3655 199.063 18.3655C200.397 18.3655 201.564 18.7301 202.565 19.4594C203.621 20.1431 204.149 20.9863 204.149 21.989C204.149 23.6754 202.842 25.3846 200.23 27.1166C197.674 28.803 195.145 29.6462 192.644 29.6462C192.144 29.6462 191.894 29.5551 191.894 29.3727L192.144 29.0309C198.535 27.3901 201.731 24.7009 201.731 20.9635C201.731 20.4165 201.509 20.1431 201.064 20.1431C200.453 20.1431 199.341 20.6672 197.729 21.7155C196.34 22.6271 195.034 23.6754 193.811 24.8605C192.644 26.0455 191.588 27.2761 190.643 28.5523C188.643 31.3326 187.642 33.6571 187.642 35.5259C187.642 37.349 188.504 38.2606 190.226 38.2606C192.227 38.2606 194.423 37.4174 196.812 35.731C197.59 35.1385 198.424 34.4776 199.313 33.7483C200.203 32.9735 201.175 32.1303 202.231 31.2187C204.287 29.3955 205.371 28.484 205.482 28.484C205.816 28.484 205.983 28.5979 205.983 28.8258C205.983 29.0081 205.927 29.1904 205.816 29.3727C199.98 36.3463 195.145 39.8331 191.31 39.8331Z" fill="#4E7281"/>
<path d="M41.0363 14.9471C37.5905 14.9471 33.978 14.0355 30.1987 12.2124C26.3639 10.3436 24.4465 8.42933 24.4465 6.46945C24.4465 3.82588 26.0583 2.5041 29.2817 2.5041C29.6152 2.5041 30.032 2.52689 30.5322 2.57247C31.0324 2.57247 31.4492 2.61804 31.7827 2.7092C41.0085 4.62351 48.9838 6.10482 55.7086 7.15313C62.489 8.15586 67.9911 8.65722 72.2149 8.65722C77.1613 8.65722 79.6344 7.76844 79.6344 5.99087C79.6344 5.35277 79.2176 4.80582 78.384 4.35004C77.6059 3.84867 76.4666 3.37009 74.966 2.91431L70.4642 1.47858C70.4642 1.25069 70.8255 1.13674 71.548 1.13674C73.7155 1.13674 76.0219 1.93436 78.4673 3.52962C80.9127 5.12487 82.1354 6.67455 82.1354 8.17865C82.1354 9.95622 80.0235 10.845 75.7996 10.845H75.4662C72.6317 10.845 70.0196 10.7311 67.6298 10.5032C65.2956 10.2297 63.1559 9.93343 61.2107 9.61438L43.037 6.60618C41.592 6.37829 40.4249 6.19597 39.5357 6.05924C38.702 5.87692 37.5905 5.69461 36.2011 5.51229C34.9784 5.32998 33.7835 5.21603 32.6163 5.17045C31.5048 5.07929 30.3933 5.03372 29.2817 5.03372C27.1142 5.03372 26.0305 5.51229 26.0305 6.46945C26.0305 8.15586 27.8923 9.84227 31.616 11.5287C33.9502 12.577 35.8398 13.2835 37.2848 13.6481C38.7298 13.9671 39.9247 14.1039 40.8695 14.0583L42.4535 13.9899C42.8425 13.9899 43.037 14.0811 43.037 14.2634C43.037 14.7192 42.3701 14.9471 41.0363 14.9471ZM47.372 42.431C44.2041 42.431 42.6202 40.6991 42.6202 37.2351C42.6202 35.4575 43.7317 32.4037 45.9548 28.0738C47.0664 25.886 48.3168 23.7894 49.7063 21.7839C51.1513 19.7328 52.6796 17.7958 54.2914 15.9726C57.626 12.2807 60.4604 10.4348 62.7946 10.4348C64.0729 10.4348 64.712 10.7766 64.712 11.4603C64.712 11.5059 64.5731 11.8022 64.2952 12.3491L59.0432 16.6563C49.5395 25.3162 44.7877 33.019 44.7877 39.7647C44.7877 41.0409 45.5936 41.679 47.2053 41.679C48.4836 41.679 49.8174 41.3599 51.2068 40.7218L53.291 39.7647C53.5133 39.7647 53.6244 39.8103 53.6244 39.9014C53.6244 40.4484 52.7352 40.9953 50.9567 41.5423C49.2894 42.1348 48.0945 42.431 47.372 42.431Z" stroke="#2F444C" mask="url(#path-2-outside-1_49_37)"/>
<path d="M77.3875 15.2206C76.1648 15.2206 75.1644 14.9471 74.3863 14.4001C75.4423 13.8076 76.5538 13.0328 77.7209 12.0756C78.9436 11.1185 80.1941 9.97901 81.4724 8.65722C81.5835 8.65722 81.6391 8.77117 81.6391 8.99906L81.2223 10.9817C80.9444 12.3947 80.4442 13.4658 79.7217 14.195C78.9992 14.8787 78.2211 15.2206 77.3875 15.2206ZM69.3844 40.1065C67.2725 40.1065 66.2165 38.8531 66.2165 36.3463C66.2165 32.5633 67.8838 27.5724 71.2184 21.3737C71.2184 21.1914 71.3574 20.8495 71.6353 20.3482C71.9687 19.8468 72.2188 19.5277 72.3856 19.391C72.7746 19.072 73.3026 18.9124 73.9695 18.9124C75.9147 18.9124 76.9707 19.2315 77.1374 19.8696C76.2482 21.0546 75.3867 22.422 74.5531 23.9717C73.775 25.5213 72.9969 27.2305 72.2188 29.0993C71.3852 31.1047 70.7738 32.7684 70.3848 34.0901C70.0513 35.3663 69.8846 36.3919 69.8846 37.1667C69.8846 38.3062 70.2458 38.8759 70.9683 38.8759C71.4685 38.8759 72.1077 38.6252 72.8858 38.1239C73.4971 37.7136 73.9139 37.4174 74.1362 37.2351C74.4141 37.0528 74.6642 36.8932 74.8865 36.7565C75.1088 36.7565 75.22 36.8477 75.22 37.03C75.22 37.5313 74.4141 38.1694 72.8024 38.9443C71.1907 39.7191 70.0513 40.1065 69.3844 40.1065Z" stroke="#2F444C" mask="url(#path-2-outside-1_49_37)"/>
<path d="M82.0807 39.2177C81.5249 39.2177 80.9414 39.1038 80.33 38.8759C79.7187 38.648 79.413 38.3745 79.413 38.0555C79.413 37.2806 80.33 34.5459 82.1641 29.8513C83.9981 25.1111 84.9151 21.556 84.9151 19.1859C84.9151 18.4566 84.5261 18.0464 83.748 17.9553C82.9699 17.8641 82.5809 17.7274 82.5809 17.5451C82.5809 17.1349 82.9977 16.9298 83.8314 16.9298C87.555 16.9298 89.4169 18.1832 89.4169 20.69C89.4169 21.9206 88.7777 24.04 87.4994 27.0482L89.4169 24.3819C90.7507 22.5131 92.0845 21.0546 93.4184 20.0063C94.7522 18.9124 96.225 18.3655 97.8368 18.3655H98.0035C100.56 18.3655 101.838 19.7784 101.838 22.6043C101.838 23.7438 101.588 25.2251 101.088 27.0482C100.588 28.8714 99.8097 31.0364 98.7538 33.5432L110.175 23.4247C110.953 23.0601 111.953 22.8778 113.176 22.8778C114.454 22.8778 115.093 23.0829 115.093 23.4931C112.87 28.4156 111.759 32.0163 111.759 34.2952C111.759 36.4374 112.231 37.5085 113.176 37.5085L113.76 36.0044C113.926 36.3235 114.01 36.8021 114.01 37.4402C114.01 38.6252 113.565 39.2177 112.676 39.2177C109.786 39.2177 108.341 37.1667 108.341 33.0646C108.341 32.0619 108.424 30.9224 108.591 29.6462C108.813 28.37 109.119 26.9571 109.508 25.4074C108.785 25.9999 108.118 26.6152 107.507 27.2533C106.951 27.8459 106.34 28.5295 105.673 29.3044L101.338 34.2952C98.9483 37.0755 97.4755 38.4657 96.9197 38.4657C95.0301 38.4657 94.0853 38.1922 94.0853 37.6453C94.0853 37.5997 94.391 36.5286 95.0023 34.432C96.9475 28.4156 97.9201 24.3819 97.9201 22.3308C97.9201 21.3737 97.5589 20.8951 96.8364 20.8951C94.78 20.8951 92.0012 23.3791 88.4998 28.3472C87.8885 29.2588 87.1938 30.3527 86.4157 31.6289C85.6932 32.8595 85.0263 34.0446 84.4149 35.184C84.3038 35.4575 84.0537 35.9133 83.6646 36.5514C83.3312 37.1895 82.9977 37.8048 82.6643 38.3973C82.3308 38.9443 82.1363 39.2177 82.0807 39.2177Z" stroke="#2F444C" mask="url(#path-2-outside-1_49_37)"/>
<path d="M121.948 39.8331C117.224 39.8331 114.862 38.0327 114.862 34.432C114.862 31.6517 116.529 28.2789 119.863 24.3135C123.309 20.3482 126.588 18.3655 129.701 18.3655C131.034 18.3655 132.202 18.7301 133.202 19.4594C134.258 20.1431 134.786 20.9863 134.786 21.989C134.786 23.6754 133.48 25.3846 130.868 27.1166C128.311 28.803 125.782 29.6462 123.281 29.6462C122.781 29.6462 122.531 29.5551 122.531 29.3727L122.781 29.0309C129.173 27.3901 132.368 24.7009 132.368 20.9635C132.368 20.4165 132.146 20.1431 131.701 20.1431C131.09 20.1431 129.978 20.6672 128.367 21.7155C126.977 22.6271 125.671 23.6754 124.449 24.8605C123.281 26.0455 122.225 27.2761 121.281 28.5523C119.28 31.3326 118.28 33.6571 118.28 35.5259C118.28 37.349 119.141 38.2606 120.864 38.2606C122.865 38.2606 125.06 37.4174 127.45 35.731C128.228 35.1385 129.061 34.4776 129.951 33.7483C130.84 32.9735 131.813 32.1303 132.868 31.2187C134.925 29.3955 136.009 28.484 136.12 28.484C136.453 28.484 136.62 28.5979 136.62 28.8258C136.62 29.0081 136.564 29.1904 136.453 29.3727C130.618 36.3463 125.782 39.8331 121.948 39.8331Z" stroke="#2F444C" mask="url(#path-2-outside-1_49_37)"/>
<path d="M140.405 39.6963C137.737 39.6963 136.403 37.8732 136.403 34.2269C136.403 31.9024 137.292 28.0738 139.071 22.741C140.849 17.3628 143.1 12.4175 145.823 7.90517C148.602 3.30172 151.048 1 153.159 1C154.382 1 155.605 1.34184 156.828 2.02552C158.05 2.66362 158.662 3.37009 158.662 4.14493C158.662 7.4266 152.77 14.7192 140.988 26.0227C140.544 27.7091 140.182 29.2816 139.904 30.7401C139.682 32.1986 139.571 33.566 139.571 34.8422C139.571 37.349 140.238 38.6024 141.572 38.6024L142.906 38.2606C143.183 38.2606 143.322 38.3745 143.322 38.6024C143.322 39.3317 142.35 39.6963 140.405 39.6963ZM141.572 24.2451C151.631 13.4886 156.661 6.72013 156.661 3.93983C156.661 3.39288 156.466 3.11941 156.077 3.11941C154.41 3.11941 151.992 5.55787 148.824 10.4348C145.657 15.3117 143.239 19.9152 141.572 24.2451Z" stroke="#2F444C" mask="url(#path-2-outside-1_49_37)"/>
<path d="M160.102 15.2206C158.879 15.2206 157.879 14.9471 157.1 14.4001C158.156 13.8076 159.268 13.0328 160.435 12.0756C161.658 11.1185 162.908 9.97901 164.187 8.65722C164.298 8.65722 164.353 8.77117 164.353 8.99906L163.936 10.9817C163.659 12.3947 163.158 13.4658 162.436 14.195C161.713 14.8787 160.935 15.2206 160.102 15.2206ZM152.099 40.1065C149.987 40.1065 148.931 38.8531 148.931 36.3463C148.931 32.5633 150.598 27.5724 153.933 21.3737C153.933 21.1914 154.072 20.8495 154.349 20.3482C154.683 19.8468 154.933 19.5277 155.1 19.391C155.489 19.072 156.017 18.9124 156.684 18.9124C158.629 18.9124 159.685 19.2315 159.852 19.8696C158.962 21.0546 158.101 22.422 157.267 23.9717C156.489 25.5213 155.711 27.2305 154.933 29.0993C154.099 31.1047 153.488 32.7684 153.099 34.0901C152.765 35.3663 152.599 36.3919 152.599 37.1667C152.599 38.3062 152.96 38.8759 153.682 38.8759C154.183 38.8759 154.822 38.6252 155.6 38.1239C156.211 37.7136 156.628 37.4174 156.85 37.2351C157.128 37.0528 157.378 36.8932 157.601 36.7565C157.823 36.7565 157.934 36.8477 157.934 37.03C157.934 37.5313 157.128 38.1694 155.517 38.9443C153.905 39.7191 152.765 40.1065 152.099 40.1065Z" stroke="#2F444C" mask="url(#path-2-outside-1_49_37)"/>
<path d="M163.242 39.2177C162.686 39.2177 162.158 39.1038 161.658 38.8759C161.158 38.6024 160.88 38.329 160.825 38.0555C160.825 37.2806 161.742 34.5459 163.576 29.8513C165.41 25.1111 166.327 21.556 166.327 19.1859C166.327 18.5022 166.132 18.1148 165.743 18.0236C165.354 17.8869 164.965 17.8413 164.576 17.8869C164.187 17.8869 163.992 17.773 163.992 17.5451C163.992 17.1349 164.409 16.9298 165.243 16.9298C168.967 16.9298 170.828 18.1832 170.828 20.69C170.828 21.6016 169.495 25.3162 166.827 31.834C168.05 30.2387 169.244 28.7802 170.412 27.4584C171.634 26.0911 172.801 24.8377 173.913 23.6982C176.192 21.4193 177.72 20.2798 178.498 20.2798C178.498 20.2798 178.498 20.3026 178.498 20.3482C178.554 20.3482 178.581 20.3709 178.581 20.4165C178.581 20.4621 178.526 20.5761 178.415 20.7584C178.359 20.8951 178.192 21.1002 177.914 21.3737C171.912 27.2989 167.744 32.4037 165.41 36.6881L164.659 38.4657C164.437 38.9671 163.965 39.2177 163.242 39.2177ZM180.499 39.9698C178.887 39.9698 177.609 39.3545 176.664 38.1239C175.775 36.9844 175.33 35.2752 175.33 32.9963C175.33 30.8085 176.053 27.8686 177.498 24.1768C178.943 20.4849 180.332 18.639 181.666 18.639H182.083C183.917 18.639 184.889 18.9352 185.001 19.5277C184.889 19.4366 184.75 19.5733 184.584 19.938C183.806 21.0774 183.055 22.3536 182.333 23.7666C181.666 25.1795 181.027 26.7064 180.415 28.3472C179.193 31.5377 178.581 33.6799 178.581 34.7738C178.581 37.5541 179.193 38.9443 180.415 38.9443C180.749 38.9443 181.221 38.7392 181.833 38.329C182.5 37.9188 182.805 37.6909 182.75 37.6453C182.916 37.6453 183 37.8276 183 38.1922C183 39.3773 182.166 39.9698 180.499 39.9698Z" stroke="#2F444C" mask="url(#path-2-outside-1_49_37)"/>
<path d="M191.31 39.8331C186.586 39.8331 184.224 38.0327 184.224 34.432C184.224 31.6517 185.891 28.2789 189.226 24.3135C192.672 20.3482 195.951 18.3655 199.063 18.3655C200.397 18.3655 201.564 18.7301 202.565 19.4594C203.621 20.1431 204.149 20.9863 204.149 21.989C204.149 23.6754 202.842 25.3846 200.23 27.1166C197.674 28.803 195.145 29.6462 192.644 29.6462C192.144 29.6462 191.894 29.5551 191.894 29.3727L192.144 29.0309C198.535 27.3901 201.731 24.7009 201.731 20.9635C201.731 20.4165 201.509 20.1431 201.064 20.1431C200.453 20.1431 199.341 20.6672 197.729 21.7155C196.34 22.6271 195.034 23.6754 193.811 24.8605C192.644 26.0455 191.588 27.2761 190.643 28.5523C188.643 31.3326 187.642 33.6571 187.642 35.5259C187.642 37.349 188.504 38.2606 190.226 38.2606C192.227 38.2606 194.423 37.4174 196.812 35.731C197.59 35.1385 198.424 34.4776 199.313 33.7483C200.203 32.9735 201.175 32.1303 202.231 31.2187C204.287 29.3955 205.371 28.484 205.482 28.484C205.816 28.484 205.983 28.5979 205.983 28.8258C205.983 29.0081 205.927 29.1904 205.816 29.3727C199.98 36.3463 195.145 39.8331 191.31 39.8331Z" stroke="#2F444C" mask="url(#path-2-outside-1_49_37)"/>
</g>
<defs>
<filter id="filter0_d_49_37" x="19.9465" y="0.5" width="190.536" height="50.431" filterUnits="userSpaceOnUse" color-interpolation-filters="sRGB">
<feFlood flood-opacity="0" result="BackgroundImageFix"/>
<feColorMatrix in="SourceAlpha" type="matrix" values="0 0 0 0 0 0 0 0 0 0 0 0 0 0 0 0 0 0 127 0" result="hardAlpha"/>
<feOffset dy="4"/>
<feGaussianBlur stdDeviation="2"/>
<feComposite in2="hardAlpha" operator="out"/>
<feColorMatrix type="matrix" values="0 0 0 0 0 0 0 0 0 0 0 0 0 0 0 0 0 0 0.25 0"/>
<feBlend mode="normal" in2="BackgroundImageFix" result="effect1_dropShadow_49_37"/>
<feBlend mode="normal" in="SourceGraphic" in2="effect1_dropShadow_49_37" result="shape"/>
</filter>
</defs>
</svg>
