<svg width="240" height="56" viewBox="0 0 240 56" fill="none" xmlns="http://www.w3.org/2000/svg">
<path d="M229.022 27.6412C228.588 27.6884 218.807 28.5784 207.512 29.6633C209.24 29.5097 220.668 29.0134 230.182 28.9043C232.283 28.7005 209.851 30.1575 188.629 31.351C186.363 31.7341 208.228 30.6808 228.509 29.6563C232.058 29.3196 198.395 31.3938 161.061 33.9248C160.57 33.9889 202.063 31.6273 226.133 30.5997C228.143 30.2656 190.675 32.6367 137.173 36.0974C144.904 35.6081 180.217 33.7884 230.881 30.8702C231.028 30.8654 178.022 34.2198 118.813 37.7333C122.079 37.6619 174.997 34.8499 236.379 31.0892C235.078 30.8868 165.956 35.5416 104.154 39.1162C98.6709 39.9777 172.145 35.1099 239.686 31.3488C225.341 32.5003 144.663 37.6715 68.3041 42.5693C86.1261 40.7486 155.61 36.8924 232.091 32.8745C222.398 33.7213 149.85 37.7144 57.6666 43.7725C52.6256 44.4895 142.521 38.7329 219.356 34.36C240.952 32.8341 131.61 39.4174 36.282 46.0391C45.1382 44.6928 143.395 38.9828 224.138 35.0926C229.922 34.0996 127.01 40.7059 23.9945 46.571M12.6547 54.5517C12.8683 54.5052 22.865 53.5817 33.5117 52.5841C32.921 52.6231 25.3729 52.7112 11.5065 53.3765C11.8627 53.3362 34.9008 51.766 54.2722 50.6896C53.7637 50.7237 36.5862 51.242 10.814 52.7332C10.5217 52.648 42.3249 50.6353 77.8465 48.4995C77.825 48.3456 49.3961 49.6821 14.4624 51.7277C11.0708 52.1206 57.1315 48.8692 98.3582 46.6713C93.9841 46.8035 51.7321 49.4009 6.62739 51.7557C13.7218 51.0396 63.6415 47.8804 116.66 44.6186C121.288 44.3208 59.9057 48.0814 8.69877 50.8368C8.43517 51.0778 79.3776 46.0835 148.531 41.651C134.993 42.9661 83.5374 45.6483 12.041 50.1472C9.89192 50.3621 94.8542 44.6581 164.751 40.3001C173.98 39.3647 79.1085 45.7408 2.71473 50.3855C21.7265 48.1672 91.8579 44.7009 198.729 36.816C191.734 37.9316 104.422 43.2063 14.4716 48.5684C6.24411 48.7571 101.677 42.8859 213.691 35.3764C208.17 35.9638 124.64 41.0974 3.92626e-05 48.7438C20.9475 47.0442 120.864 41.2817 226.836 34.2949" stroke="#C5C1F4" stroke-opacity="0.75" stroke-width="2"/>
<path d="M40.0363 13.9471C36.5905 13.9471 32.978 13.0355 29.1987 11.2124C25.3639 9.34364 23.4465 7.42933 23.4465 5.46945C23.4465 2.82588 25.0583 1.5041 28.2817 1.5041C28.6152 1.5041 29.032 1.52689 29.5322 1.57247C30.0324 1.57247 30.4492 1.61804 30.7827 1.7092C40.0085 3.62351 47.9838 5.10482 54.7086 6.15313C61.489 7.15586 66.9911 7.65722 71.2149 7.65722C76.1613 7.65722 78.6344 6.76844 78.6344 4.99087C78.6344 4.35277 78.2176 3.80582 77.384 3.35004C76.6059 2.84867 75.4666 2.37009 73.966 1.91431L69.4642 0.478578C69.4642 0.250685 69.8255 0.136738 70.548 0.136738C72.7155 0.136738 75.0219 0.934365 77.4673 2.52962C79.9127 4.12487 81.1354 5.67455 81.1354 7.17865C81.1354 8.95622 79.0235 9.845 74.7996 9.845H74.4662C71.6317 9.845 69.0196 9.73105 66.6298 9.50316C64.2956 9.22969 62.1559 8.93343 60.2107 8.61438L42.037 5.60618C40.592 5.37829 39.4249 5.19597 38.5357 5.05924C37.702 4.87692 36.5905 4.69461 35.2011 4.51229C33.9784 4.32998 32.7835 4.21603 31.6163 4.17045C30.5048 4.07929 29.3933 4.03372 28.2817 4.03372C26.1142 4.03372 25.0305 4.51229 25.0305 5.46945C25.0305 7.15586 26.8923 8.84227 30.616 10.5287C32.9502 11.577 34.8398 12.2835 36.2848 12.6481C37.7298 12.9671 38.9247 13.1039 39.8695 13.0583L41.4535 12.9899C41.8425 12.9899 42.037 13.0811 42.037 13.2634C42.037 13.7192 41.3701 13.9471 40.0363 13.9471ZM46.372 41.431C43.2041 41.431 41.6202 39.6991 41.6202 36.2351C41.6202 34.4575 42.7317 31.4037 44.9548 27.0738C46.0664 24.886 47.3168 22.7894 48.7063 20.7839C50.1513 18.7328 51.6796 16.7958 53.2914 14.9726C56.626 11.2807 59.4604 9.43479 61.7946 9.43479C63.0729 9.43479 63.712 9.77663 63.712 10.4603C63.712 10.5059 63.5731 10.8022 63.2952 11.3491L58.0432 15.6563C48.5395 24.3162 43.7877 32.019 43.7877 38.7647C43.7877 40.0409 44.5936 40.679 46.2053 40.679C47.4836 40.679 48.8174 40.3599 50.2068 39.7218L52.291 38.7647C52.5133 38.7647 52.6244 38.8103 52.6244 38.9014C52.6244 39.4484 51.7352 39.9953 49.9567 40.5423C48.2894 41.1348 47.0945 41.431 46.372 41.431Z" fill="#7519A1"/>
<path d="M76.3875 14.2206C75.1648 14.2206 74.1644 13.9471 73.3863 13.4001C74.4423 12.8076 75.5538 12.0328 76.7209 11.0756C77.9436 10.1185 79.1941 8.97901 80.4724 7.65722C80.5835 7.65722 80.6391 7.77117 80.6391 7.99906L80.2223 9.98174C79.9444 11.3947 79.4442 12.4658 78.7217 13.195C77.9992 13.8787 77.2211 14.2206 76.3875 14.2206ZM68.3844 39.1065C66.2725 39.1065 65.2165 37.8531 65.2165 35.3463C65.2165 31.5633 66.8838 26.5724 70.2184 20.3737C70.2184 20.1914 70.3574 19.8495 70.6353 19.3482C70.9687 18.8468 71.2188 18.5277 71.3856 18.391C71.7746 18.072 72.3026 17.9124 72.9695 17.9124C74.9147 17.9124 75.9707 18.2315 76.1374 18.8696C75.2482 20.0546 74.3867 21.422 73.5531 22.9717C72.775 24.5213 71.9969 26.2305 71.2188 28.0993C70.3852 30.1047 69.7738 31.7684 69.3848 33.0901C69.0513 34.3663 68.8846 35.3919 68.8846 36.1667C68.8846 37.3062 69.2458 37.8759 69.9683 37.8759C70.4685 37.8759 71.1077 37.6252 71.8858 37.1239C72.4971 36.7136 72.9139 36.4174 73.1362 36.2351C73.4141 36.0528 73.6642 35.8932 73.8865 35.7565C74.1088 35.7565 74.22 35.8477 74.22 36.03C74.22 36.5313 73.4141 37.1694 71.8024 37.9443C70.1907 38.7191 69.0513 39.1065 68.3844 39.1065Z" fill="#7519A1"/>
<path d="M81.0807 38.2177C80.5249 38.2177 79.9414 38.1038 79.33 37.8759C78.7187 37.648 78.413 37.3745 78.413 37.0555C78.413 36.2806 79.33 33.5459 81.1641 28.8513C82.9981 24.1111 83.9151 20.556 83.9151 18.1859C83.9151 17.4566 83.5261 17.0464 82.748 16.9553C81.9699 16.8641 81.5809 16.7274 81.5809 16.5451C81.5809 16.1349 81.9977 15.9298 82.8314 15.9298C86.555 15.9298 88.4169 17.1832 88.4169 19.69C88.4169 20.9206 87.7777 23.04 86.4994 26.0482L88.4169 23.3819C89.7507 21.5131 91.0845 20.0546 92.4184 19.0063C93.7522 17.9124 95.225 17.3655 96.8368 17.3655H97.0035C99.56 17.3655 100.838 18.7784 100.838 21.6043C100.838 22.7438 100.588 24.2251 100.088 26.0482C99.5878 27.8714 98.8097 30.0364 97.7538 32.5432L109.175 22.4247C109.953 22.0601 110.953 21.8778 112.176 21.8778C113.454 21.8778 114.093 22.0829 114.093 22.4931C111.87 27.4156 110.759 31.0163 110.759 33.2952C110.759 35.4374 111.231 36.5085 112.176 36.5085L112.76 35.0044C112.926 35.3235 113.01 35.8021 113.01 36.4402C113.01 37.6252 112.565 38.2177 111.676 38.2177C108.786 38.2177 107.341 36.1667 107.341 32.0646C107.341 31.0619 107.424 29.9224 107.591 28.6462C107.813 27.37 108.119 25.9571 108.508 24.4074C107.785 24.9999 107.118 25.6152 106.507 26.2533C105.951 26.8459 105.34 27.5295 104.673 28.3044L100.338 33.2952C97.9483 36.0755 96.4755 37.4657 95.9197 37.4657C94.0301 37.4657 93.0853 37.1922 93.0853 36.6453C93.0853 36.5997 93.391 35.5286 94.0023 33.432C95.9475 27.4156 96.9201 23.3819 96.9201 21.3308C96.9201 20.3737 96.5589 19.8951 95.8364 19.8951C93.78 19.8951 91.0012 22.3791 87.4998 27.3472C86.8885 28.2588 86.1938 29.3527 85.4157 30.6289C84.6932 31.8595 84.0263 33.0446 83.4149 34.184C83.3038 34.4575 83.0537 34.9133 82.6646 35.5514C82.3312 36.1895 81.9977 36.8048 81.6643 37.3973C81.3308 37.9443 81.1363 38.2177 81.0807 38.2177Z" fill="#7519A1"/>
<path d="M120.948 38.8331C116.224 38.8331 113.862 37.0327 113.862 33.432C113.862 30.6517 115.529 27.2789 118.863 23.3135C122.309 19.3482 125.588 17.3655 128.701 17.3655C130.034 17.3655 131.202 17.7301 132.202 18.4594C133.258 19.1431 133.786 19.9863 133.786 20.989C133.786 22.6754 132.48 24.3846 129.868 26.1166C127.311 27.803 124.782 28.6462 122.281 28.6462C121.781 28.6462 121.531 28.5551 121.531 28.3727L121.781 28.0309C128.173 26.3901 131.368 23.7009 131.368 19.9635C131.368 19.4165 131.146 19.1431 130.701 19.1431C130.09 19.1431 128.978 19.6672 127.367 20.7155C125.977 21.6271 124.671 22.6754 123.449 23.8605C122.281 25.0455 121.225 26.2761 120.281 27.5523C118.28 30.3326 117.28 32.6571 117.28 34.5259C117.28 36.349 118.141 37.2606 119.864 37.2606C121.865 37.2606 124.06 36.4174 126.45 34.731C127.228 34.1385 128.061 33.4776 128.951 32.7483C129.84 31.9735 130.813 31.1303 131.868 30.2187C133.925 28.3955 135.009 27.484 135.12 27.484C135.453 27.484 135.62 27.5979 135.62 27.8258C135.62 28.0081 135.564 28.1904 135.453 28.3727C129.618 35.3463 124.782 38.8331 120.948 38.8331Z" fill="#7519A1"/>
<path d="M139.405 38.6963C136.737 38.6963 135.403 36.8732 135.403 33.2269C135.403 30.9024 136.292 27.0738 138.071 21.741C139.849 16.3628 142.1 11.4175 144.823 6.90517C147.602 2.30172 150.048 0 152.159 0C153.382 0 154.605 0.34184 155.828 1.02552C157.05 1.66362 157.662 2.37009 157.662 3.14493C157.662 6.4266 151.77 13.7192 139.988 25.0227C139.544 26.7091 139.182 28.2816 138.904 29.7401C138.682 31.1986 138.571 32.566 138.571 33.8422C138.571 36.349 139.238 37.6024 140.572 37.6024L141.906 37.2606C142.183 37.2606 142.322 37.3745 142.322 37.6024C142.322 38.3317 141.35 38.6963 139.405 38.6963ZM140.572 23.2451C150.631 12.4886 155.661 5.72013 155.661 2.93983C155.661 2.39288 155.466 2.11941 155.077 2.11941C153.41 2.11941 150.992 4.55787 147.824 9.43479C144.657 14.3117 142.239 18.9152 140.572 23.2451Z" fill="#7519A1"/>
<path d="M159.102 14.2206C157.879 14.2206 156.879 13.9471 156.1 13.4001C157.156 12.8076 158.268 12.0328 159.435 11.0756C160.658 10.1185 161.908 8.97901 163.187 7.65722C163.298 7.65722 163.353 7.77117 163.353 7.99906L162.936 9.98174C162.659 11.3947 162.158 12.4658 161.436 13.195C160.713 13.8787 159.935 14.2206 159.102 14.2206ZM151.099 39.1065C148.987 39.1065 147.931 37.8531 147.931 35.3463C147.931 31.5633 149.598 26.5724 152.933 20.3737C152.933 20.1914 153.072 19.8495 153.349 19.3482C153.683 18.8468 153.933 18.5277 154.1 18.391C154.489 18.072 155.017 17.9124 155.684 17.9124C157.629 17.9124 158.685 18.2315 158.852 18.8696C157.962 20.0546 157.101 21.422 156.267 22.9717C155.489 24.5213 154.711 26.2305 153.933 28.0993C153.099 30.1047 152.488 31.7684 152.099 33.0901C151.765 34.3663 151.599 35.3919 151.599 36.1667C151.599 37.3062 151.96 37.8759 152.682 37.8759C153.183 37.8759 153.822 37.6252 154.6 37.1239C155.211 36.7136 155.628 36.4174 155.85 36.2351C156.128 36.0528 156.378 35.8932 156.601 35.7565C156.823 35.7565 156.934 35.8477 156.934 36.03C156.934 36.5313 156.128 37.1694 154.517 37.9443C152.905 38.7191 151.765 39.1065 151.099 39.1065Z" fill="#7519A1"/>
<path d="M162.242 38.2177C161.686 38.2177 161.158 38.1038 160.658 37.8759C160.158 37.6024 159.88 37.329 159.825 37.0555C159.825 36.2806 160.742 33.5459 162.576 28.8513C164.41 24.1111 165.327 20.556 165.327 18.1859C165.327 17.5022 165.132 17.1148 164.743 17.0236C164.354 16.8869 163.965 16.8413 163.576 16.8869C163.187 16.8869 162.992 16.773 162.992 16.5451C162.992 16.1349 163.409 15.9298 164.243 15.9298C167.967 15.9298 169.828 17.1832 169.828 19.69C169.828 20.6016 168.495 24.3162 165.827 30.834C167.05 29.2387 168.244 27.7802 169.412 26.4584C170.634 25.0911 171.801 23.8377 172.913 22.6982C175.192 20.4193 176.72 19.2798 177.498 19.2798C177.498 19.2798 177.498 19.3026 177.498 19.3482C177.554 19.3482 177.581 19.3709 177.581 19.4165C177.581 19.4621 177.526 19.5761 177.415 19.7584C177.359 19.8951 177.192 20.1002 176.914 20.3737C170.912 26.2989 166.744 31.4037 164.41 35.6881L163.659 37.4657C163.437 37.9671 162.965 38.2177 162.242 38.2177ZM179.499 38.9698C177.887 38.9698 176.609 38.3545 175.664 37.1239C174.775 35.9844 174.33 34.2752 174.33 31.9963C174.33 29.8085 175.053 26.8686 176.498 23.1768C177.943 19.4849 179.332 17.639 180.666 17.639H181.083C182.917 17.639 183.889 17.9352 184.001 18.5277C183.889 18.4366 183.75 18.5733 183.584 18.938C182.806 20.0774 182.055 21.3536 181.333 22.7666C180.666 24.1795 180.027 25.7064 179.415 27.3472C178.193 30.5377 177.581 32.6799 177.581 33.7738C177.581 36.5541 178.193 37.9443 179.415 37.9443C179.749 37.9443 180.221 37.7392 180.833 37.329C181.5 36.9188 181.805 36.6909 181.75 36.6453C181.916 36.6453 182 36.8276 182 37.1922C182 38.3773 181.166 38.9698 179.499 38.9698Z" fill="#7519A1"/>
<path d="M190.31 38.8331C185.586 38.8331 183.224 37.0327 183.224 33.432C183.224 30.6517 184.891 27.2789 188.226 23.3135C191.672 19.3482 194.951 17.3655 198.063 17.3655C199.397 17.3655 200.564 17.7301 201.565 18.4594C202.621 19.1431 203.149 19.9863 203.149 20.989C203.149 22.6754 201.842 24.3846 199.23 26.1166C196.674 27.803 194.145 28.6462 191.644 28.6462C191.144 28.6462 190.894 28.5551 190.894 28.3727L191.144 28.0309C197.535 26.3901 200.731 23.7009 200.731 19.9635C200.731 19.4165 200.509 19.1431 200.064 19.1431C199.453 19.1431 198.341 19.6672 196.729 20.7155C195.34 21.6271 194.034 22.6754 192.811 23.8605C191.644 25.0455 190.588 26.2761 189.643 27.5523C187.643 30.3326 186.642 32.6571 186.642 34.5259C186.642 36.349 187.504 37.2606 189.226 37.2606C191.227 37.2606 193.423 36.4174 195.812 34.731C196.59 34.1385 197.424 33.4776 198.313 32.7483C199.203 31.9735 200.175 31.1303 201.231 30.2187C203.287 28.3955 204.371 27.484 204.482 27.484C204.816 27.484 204.983 27.5979 204.983 27.8258C204.983 28.0081 204.927 28.1904 204.816 28.3727C198.98 35.3463 194.145 38.8331 190.31 38.8331Z" fill="#7519A1"/>
</svg>
